<svg width="45" height="40" viewBox="0 0 45 40" fill="none" xmlns="http://www.w3.org/2000/svg">
<path d="M5.23161 0H0.980927C0.35553 0 0 0.800254 0 1.3079C0 1.89005 0.603207 2.6158 1.19891 2.6158H8.0654L12.752 23.8692C12.6431 23.9782 12.2603 24.2139 11.9843 24.4166C11.7082 24.6193 11.2149 25.1392 10.8992 25.7221C10.1742 27.0604 10.4681 28.8015 11.4441 29.9728C12.0981 30.8447 12.861 31.2807 13.406 31.3897C14.1689 31.4986 35.7493 31.3897 35.7493 31.3897H38.3651C39.3203 31.3897 39.3461 30.4087 39.3461 29.8638C39.3461 29.3188 39.0191 28.8828 38.181 28.7738C37.6698 28.6649 14.4959 28.7738 14.0599 28.7738C12.8696 28.7738 12.884 26.354 14.0599 26.158H33.8965H37.7112C38.2561 26.158 38.9025 26.0003 39.1281 25.8311C39.1378 25.8238 39.1496 25.8082 39.1633 25.7847C39.766 24.7539 44.1441 8.49407 44.2507 8.17439C44.3597 7.84743 44.4687 7.08456 44.5776 6.32167L44.5777 6.32153C44.6649 5.71117 43.96 5.3406 43.5967 5.23161H11.3352L10.2452 0.544959L9.3733 0H5.23161Z" fill="#5F68FF"/>
<path d="M11.8801 7.73853H41.7439L37.2752 23.6513H15.2589L11.8801 7.73853Z" fill="white"/>
<ellipse cx="17.1118" cy="35.7492" rx="4.25068" ry="4.25068" fill="#5F68FF"/>
<ellipse cx="17.1117" cy="35.7494" rx="1.41689" ry="1.41689" fill="white"/>
<ellipse cx="35.4223" cy="35.7492" rx="4.25068" ry="4.25068" fill="#5F68FF"/>
<ellipse cx="35.4224" cy="35.7494" rx="1.41689" ry="1.41689" fill="white"/>
</svg>
