<svg width="23" height="13" viewBox="0 0 23 13" fill="none" xmlns="http://www.w3.org/2000/svg">
<path d="M3.83331 2C3.83331 0.895429 4.72874 0 5.83331 0H17.0757V10.803H3.83331V2Z" fill="#5F68FF"/>
<path d="M4.53027 0.697021H16.3788V10.1061H4.53027V0.697021Z" fill="white"/>
<path d="M16.3788 5.13635C16.3788 4.03178 17.2742 3.13635 18.3788 3.13635H19.2614C19.9807 3.13635 20.6447 3.52268 21.0001 4.14808L22.7388 7.20704C22.91 7.50828 23 7.84883 23 8.19532V8.80302C23 9.90759 22.1046 10.803 21 10.803H18.3788C17.2742 10.803 16.3788 9.90759 16.3788 8.80302V6.96968V5.13635Z" fill="#5F68FF"/>
<path d="M16.3788 3.83332C16.3788 3.4484 16.7082 3.13635 17.1145 3.13635H19.9857C20.2563 3.13635 20.5051 3.27713 20.6334 3.50289L22.9121 7.51194C22.9698 7.61349 23 7.72703 23 7.84237V10.106C23 10.491 22.6706 10.803 22.2643 10.803H17.1145C16.7082 10.803 16.3788 10.491 16.3788 10.106V6.96968V3.83332Z" fill="#5F68FF"/>
<path d="M17.0757 3.83337H20.2702L22.303 7.53999V10.1061H17.0757V6.96974V3.83337Z" fill="white"/>
<path d="M17.0757 4.40362C17.0757 4.08868 17.3358 3.83337 17.6566 3.83337H19.9233C20.1369 3.83337 20.3334 3.94856 20.4347 4.13327L22.2336 7.4134C22.2792 7.49649 22.303 7.58939 22.303 7.68376V9.53585C22.303 9.85079 22.043 10.1061 21.7222 10.1061H17.6566C17.3358 10.1061 17.0757 9.85079 17.0757 9.53585V6.96974V4.40362Z" fill="white"/>
<circle cx="19.5152" cy="10.8031" r="2.09091" fill="#5F68FF"/>
<ellipse cx="9.06063" cy="10.8031" rx="2.09091" ry="2.09091" fill="#5F68FF"/>
<ellipse cx="9.06063" cy="10.803" rx="1.39394" ry="1.39394" fill="white"/>
<ellipse cx="19.5152" cy="10.803" rx="1.39394" ry="1.39394" fill="white"/>
<rect x="1.74243" y="2.09094" width="4.87879" height="0.696969" rx="0.348485" fill="#5F68FF"/>
<path d="M1.74243 3.48489C1.74243 3.28752 1.89293 3.12272 2.08949 3.10485L3.47684 2.97873C3.59233 2.96823 3.70651 3.00957 3.78851 3.09157C3.8182 3.12126 3.85249 3.14598 3.89005 3.16476L3.91873 3.1791C4.08435 3.26191 4.2793 3.26191 4.44492 3.1791L4.4736 3.16476C4.51116 3.14598 4.54545 3.12126 4.57515 3.09157C4.65714 3.00957 4.77133 2.96823 4.88681 2.97873L6.27417 3.10485C6.47072 3.12272 6.62122 3.28752 6.62122 3.48489C6.62122 3.68225 6.47072 3.84705 6.27417 3.86492L4.88681 3.99104C4.77132 4.00154 4.65714 3.9602 4.57515 3.87821C4.54545 3.84851 4.51116 3.8238 4.4736 3.80501L4.44492 3.79068C4.2793 3.70786 4.08435 3.70786 3.91873 3.79068L3.89005 3.80501C3.85249 3.8238 3.8182 3.84851 3.78851 3.87821C3.70651 3.9602 3.59233 4.00154 3.47684 3.99104L2.08949 3.86492C1.89293 3.84705 1.74243 3.68225 1.74243 3.48489Z" fill="white"/>
<rect y="4.18176" width="3.13636" height="0.69697" rx="0.348485" fill="#5F68FF"/>
<rect x="2.43939" y="6.27271" width="6.9697" height="0.69697" rx="0.348485" fill="#5F68FF"/>
<rect x="0.69696" y="7.66663" width="5.22727" height="0.696971" rx="0.348486" fill="#5F68FF"/>
</svg>
